<?xml version="1.0" encoding="UTF-8"?>
<svg id="Capa_1" data-name="Capa 1" xmlns="http://www.w3.org/2000/svg" xmlns:xlink="http://www.w3.org/1999/xlink" viewBox="0 0 630 630">
  <defs>
    <style>
      .cls-1 {
        fill: #fff;
      }

      .cls-2 {
        fill: url(#radial-gradient);
      }
    </style>
    <radialGradient id="radial-gradient" cx="315" cy="261" fx="315" fy="261" r="419.44" gradientUnits="userSpaceOnUse">
      <stop offset="0" stop-color="#f2cfe3"/>
      <stop offset="1" stop-color="#c9cfec"/>
    </radialGradient>
  </defs>
  <circle class="cls-2" cx="315" cy="315" r="315"/>
  <g>
    <path class="cls-1" d="m301.75,325.29c0,36.81-.02,73.63.04,110.44,0,3.73-.55,6.97-4.42,8.49-3.76,1.48-6.74-.04-9.24-2.81-10.63-11.8-24.52-16.75-39.72-19.05-14.55-2.21-29.19-2.72-43.88-2.58-16.69.16-29.55-10.43-32.94-26.79-.4-1.93-.45-3.85-.45-5.79,0-57.11-.02-114.22,0-171.33,0-16.71,10.87-28.55,27.48-30.39,23.64-2.63,46.96-1.36,69.88,5.24,11.26,3.24,21.3,8.74,30.1,16.55,2.2,1.95,3.22,3.92,3.22,6.93-.09,37.03-.06,74.06-.06,111.09h-.01Z"/>
    <path class="cls-1" d="m457.86,301.7v84.86c0,19.12-14.25,33.39-33.39,33.23-17.95-.15-35.81.47-53.4,4.48-11.11,2.53-20.86,7.49-28.83,15.77-1.78,1.85-3.49,3.83-6.2,4.49-4.31,1.05-8.41-1.78-8.76-6.2-.08-.97-.04-1.94-.04-2.91,0-73.63.01-147.26-.06-220.89,0-3.07.9-5.18,3.2-7.26,13.34-12.06,29.52-17.46,46.8-20.43,18.21-3.13,36.47-3.31,54.8-1.25,14.48,1.63,25.81,14.22,25.84,29.32.07,28.93.02,57.87.02,86.8h.02Z"/>
  </g>
</svg>