<?xml version="1.0" encoding="utf-8"?>
<!-- Generator: Adobe Illustrator 27.2.0, SVG Export Plug-In . SVG Version: 6.00 Build 0)  -->
<svg version="1.1" id="Capa_1" xmlns="http://www.w3.org/2000/svg" xmlns:xlink="http://www.w3.org/1999/xlink" x="0px" y="0px"
	 viewBox="0 0 380 380" style="enable-background:new 0 0 380 380;" xml:space="preserve">
<style type="text/css">
	.st0{fill:url(#SVGID_1_);}
	.st1{fill:#FFFFFF;}
</style>
<radialGradient id="SVGID_1_" cx="190.5" cy="158.7862" r="246.3351" gradientUnits="userSpaceOnUse">
	<stop  offset="0" style="stop-color:#F2CFE3"/>
	<stop  offset="1" style="stop-color:#C9CFEC"/>
</radialGradient>
<circle class="st0" cx="190.5" cy="190.5" r="185"/>
<path class="st1" d="M222.3,174.3c8.2-7.6,16.5-15.3,24.7-22.9c6.8-6.3,14.1-16,24.6-13.5c9.2,2.2,12.4,9.8,12.4,18.5
	c0.1,11.9,0,23.7,0,35.6c0,11.5,0.3,23,0,34.5c-0.2,7.8-3.6,14.8-11.7,17c-10,2.7-16.9-5.3-23.9-11.1c-8.7-7.2-17.4-14.4-26.2-21.6
	c-1.6,1.2-0.4,6.9-0.4,8.8c0,3.5,0.2,7.1-0.1,10.7c-0.4,5.6-2.5,10.9-6.3,14.9c-9.6,10.3-25.2,7.4-37.8,7.4c-16.1,0-32.2,0-48.4,0
	c-12.2,0-24.1-0.6-30.2-13c-2.8-5.6-2.6-12-2.6-18.1c-0.1-8.3,0.1-16.6,0-24.9c0-15.4-1.3-31.5,0.2-46.9
	c1.2-12.5,10.7-21.6,23.2-22.1c16.2-0.7,32.5-0.1,48.6-0.1c8.5,0,17,0,25.5,0.1c6.9,0,13.1,0.5,18.8,5c12.5,9.8,9.2,27.7,9.2,41.7
	C221.9,174.1,222.1,174.2,222.3,174.3L222.3,174.3z"/>
</svg>
