<?xml version="1.0" encoding="utf-8"?>
<!-- Generator: Adobe Illustrator 27.2.0, SVG Export Plug-In . SVG Version: 6.00 Build 0)  -->
<svg version="1.1" id="Capa_1" xmlns="http://www.w3.org/2000/svg" xmlns:xlink="http://www.w3.org/1999/xlink" x="0px" y="0px"
	 viewBox="0 0 380 380" style="enable-background:new 0 0 380 380;" xml:space="preserve">
<style type="text/css">
	.st0{fill:url(#SVGID_1_);}
	.st1{fill:#FFFFFF;}
</style>
<radialGradient id="SVGID_1_" cx="190.0183" cy="158.2836" r="246.3351" gradientUnits="userSpaceOnUse">
	<stop  offset="0" style="stop-color:#F2CFE3"/>
	<stop  offset="1" style="stop-color:#C9CFEC"/>
</radialGradient>
<circle class="st0" cx="190" cy="190" r="185"/>
<path class="st1" d="M122.4,112c3.7,0.9,7.1,1.7,10.5,2.5c29.6,7.1,59.1,14.3,88.7,21.3c4,1,6.5,2.9,7.4,7.1
	c2.4,12.3,4.9,24.5,7.3,36.8c0.4,2,0.8,3,3.2,2.6c2.1-0.3,3.8,0.8,5.3,2.2c7,7,14,14,21,21c3,3.1,3,7.2,0.2,10.5
	c-0.3,0.4-0.7,0.7-1.1,1.1c-15.9,15.9-31.8,31.8-47.7,47.7c-1.7,1.7-3.4,3-5.9,3.1c-2.2,0.1-4.1-0.6-5.7-2.2
	c-6.9-7-13.9-13.9-20.9-20.9c-1.7-1.7-2.7-3.7-2.4-6.2c0.2-1.5-0.4-1.9-1.8-2.2c-12.5-2.4-25-5-37.5-7.4c-3.9-0.8-6.2-2.8-7.1-6.7
	c-5.3-22-10.6-43.9-15.9-65.9c-2.6-10.7-5.2-21.3-7.7-32c-0.1-0.4-0.2-0.7-0.2-1.1c-0.1-0.3-0.2-0.7,0.2-0.8
	c0.2-0.1,0.5,0.1,0.7,0.2c0.4,0.3,0.7,0.7,1.1,1.1c17.7,17.7,35.4,35.4,53.1,53.1c1.2,1.2,1.6,2.2,1.4,4
	c-1.1,7.3,4.3,14.2,11.8,15.4c7.5,1.2,14.5-3.9,15.9-11.7c1.3-6.9-3.7-14.2-10.7-15.8c-1.7-0.4-3.4-0.7-5.1-0.2
	c-1.5,0.4-2.4-0.1-3.4-1.1c-17.9-17.9-35.7-35.8-53.6-53.7C123.2,113.5,122.6,113.1,122.4,112L122.4,112z"/>
</svg>
