<?xml version="1.0" encoding="utf-8"?>
<!-- Generator: Adobe Illustrator 27.2.0, SVG Export Plug-In . SVG Version: 6.00 Build 0)  -->
<svg version="1.1" id="Capa_1" xmlns="http://www.w3.org/2000/svg" xmlns:xlink="http://www.w3.org/1999/xlink" x="0px" y="0px"
	 viewBox="0 0 380 380" style="enable-background:new 0 0 380 380;" xml:space="preserve">
<style type="text/css">
	.st0{fill:url(#SVGID_1_);}
	.st1{fill:#FFFFFF;}
</style>
<radialGradient id="SVGID_1_" cx="190.5" cy="158.7862" r="246.3351" gradientUnits="userSpaceOnUse">
	<stop  offset="0" style="stop-color:#F2CFE3"/>
	<stop  offset="1" style="stop-color:#C9CFEC"/>
</radialGradient>
<circle class="st0" cx="190.5" cy="190.5" r="185"/>
<path class="st1" d="M251.8,169.1c0,15,0,30,0,44.9c0,8.5-2,16.2-7.9,22.5c-8.6,9.1-19.1,12.2-31.1,8.8c-11.7-3.4-19-11.6-21.3-23.6
	c-3.4-17.5,9.3-33.9,27-35.6c2.6-0.2,5.2-0.2,7.8,0.3c1.8,0.4,2.2-0.4,2.2-2c0-8,0-15.9,0-23.9c0-9.2,0-18.3,0-27.5
	c0-2.5-0.1-2.6-2.4-2.2c-20.9,3.5-41.9,7.1-62.8,10.5c-2,0.3-2,1.4-2,2.9c0,28.8,0,57.6,0,86.5c0,14.5-9,26.1-23,29.8
	c-17.7,4.7-35.8-8.3-37.5-26.5c-1.7-18.4,13.6-34.5,32.9-33.1c0.1,0,0.1,0,0.2,0c1.4,0.1,3.1,1.1,4,0.2c1-0.9,0.4-2.8,0.4-4.2
	c0-20.1,0-40.1,0-60.2c0-9.7,5-15.4,14.6-17c18.5-3.1,37-6.2,55.5-9.3c8.7-1.5,17.4-2.9,26.1-4.3c8.2-1.3,16.1,4.7,17.1,12.9
	c0.2,1.6,0.3,3.2,0.3,4.8C251.8,138.9,251.8,154,251.8,169.1L251.8,169.1z"/>
</svg>
