<?xml version="1.0" encoding="utf-8"?>
<!-- Generator: Adobe Illustrator 27.2.0, SVG Export Plug-In . SVG Version: 6.00 Build 0)  -->
<svg version="1.1" id="Capa_1" xmlns="http://www.w3.org/2000/svg" xmlns:xlink="http://www.w3.org/1999/xlink" x="0px" y="0px"
	 viewBox="0 0 380 118" style="enable-background:new 0 0 380 118;" xml:space="preserve">
<style type="text/css">
	.st0{fill:url(#SVGID_1_);}
	.st1{fill:#FFFFFF;}
</style>
<radialGradient id="SVGID_1_" cx="190.5" cy="59.5" r="365.9636" gradientUnits="userSpaceOnUse">
	<stop  offset="0" style="stop-color:#F2CFE3"/>
	<stop  offset="1" style="stop-color:#C9CFEC"/>
</radialGradient>
<path class="st0" d="M325.2,118.1H55.8c-30.4,0-55.3-24.9-55.3-55.3v-6.6c0-30.4,24.9-55.3,55.3-55.3h269.4
	c30.4,0,55.3,24.9,55.3,55.3v6.6C380.5,93.2,355.6,118.1,325.2,118.1z"/>
<g>
	<path class="st1" d="M34.3,75.7c-3.3-2.4-5.1-5.9-5.4-10.5h14.2c0.2,2.4,1.3,3.7,3.2,3.7c0.7,0,1.3-0.2,1.8-0.5
		c0.5-0.3,0.8-0.9,0.8-1.6c0-1-0.5-1.8-1.6-2.4c-1.1-0.6-2.8-1.3-5-2.1c-2.7-1-5-1.9-6.8-2.8s-3.3-2.3-4.6-4c-1.3-1.8-1.9-4-1.9-6.8
		c0-2.8,0.7-5.1,2.1-7c1.4-1.9,3.4-3.4,5.8-4.4s5.2-1.5,8.3-1.5c5.2,0,9.3,1.2,12.4,3.6c3.1,2.4,4.7,5.8,4.8,10.1H48.2
		c0-1.2-0.3-2.1-0.9-2.6s-1.2-0.8-2-0.8c-0.6,0-1,0.2-1.4,0.6s-0.5,0.9-0.5,1.6c0,1,0.5,1.8,1.6,2.4s2.8,1.4,5.1,2.2
		c2.7,1,4.9,2,6.6,2.9c1.7,0.9,3.2,2.2,4.5,3.8s1.9,3.7,1.9,6.2c0,2.5-0.6,4.9-1.9,7s-3.1,3.7-5.6,4.8c-2.4,1.2-5.3,1.7-8.7,1.7
		C41.8,79.2,37.6,78,34.3,75.7z"/>
	<path class="st1" d="M81.1,46.9v5.2h13.2v10H81.1v6h15v10.6H67.8V36.3h28.3v10.6C96.1,46.9,81.1,46.9,81.1,46.9z"/>
	<path class="st1" d="M152.2,36.3v42.5h-13.3V57.6l-6.5,21.2H121l-6.5-21.2v21.2h-13.3V36.3h16.3l9.4,25.5l9.1-25.5
		C135.9,36.3,152.2,36.3,152.2,36.3z"/>
	<path class="st1" d="M185.4,72.4h-14.2l-2.1,6.4h-14l15.5-42.5h15.4l15.5,42.5h-14L185.4,72.4L185.4,72.4z M182.2,62.4l-3.8-11.8
		l-3.8,11.8H182.2z"/>
	<path class="st1" d="M245.3,78.8H232l-14.1-21.4v21.4h-13.3V36.3h13.3L232,58V36.3h13.3L245.3,78.8L245.3,78.8z"/>
	<path class="st1" d="M278.5,72.4h-14.2l-2.1,6.4h-14l15.5-42.5h15.4l15.5,42.5h-14L278.5,72.4L278.5,72.4z M275.3,62.4l-3.8-11.8
		l-3.8,11.8H275.3z"/>
	<path class="st1" d="M305.5,47.4V34.9h20.3v43.9h-14V47.4C311.8,47.4,305.5,47.4,305.5,47.4z"/>
	<path class="st1" d="M329.4,47.4V34.9h20.3v43.9h-14V47.4C335.8,47.4,329.4,47.4,329.4,47.4z"/>
</g>
</svg>
