<?xml version="1.0" encoding="utf-8"?>
<!-- Generator: Adobe Illustrator 27.2.0, SVG Export Plug-In . SVG Version: 6.00 Build 0)  -->
<svg version="1.1" id="Capa_1" xmlns="http://www.w3.org/2000/svg" xmlns:xlink="http://www.w3.org/1999/xlink" x="0px" y="0px"
	 viewBox="0 0 380 118" style="enable-background:new 0 0 380 118;" xml:space="preserve">
<style type="text/css">
	.st0{fill:url(#SVGID_1_);}
	.st1{fill:#FFFFFF;}
</style>
<radialGradient id="SVGID_1_" cx="190.5" cy="59.5" r="365.9636" gradientUnits="userSpaceOnUse">
	<stop  offset="0" style="stop-color:#F2CFE3"/>
	<stop  offset="1" style="stop-color:#C9CFEC"/>
</radialGradient>
<path class="st0" d="M325.2,118.1H55.8c-30.4,0-55.3-24.9-55.3-55.3v-6.6c0-30.4,24.9-55.3,55.3-55.3h269.4
	c30.4,0,55.3,24.9,55.3,55.3v6.6C380.5,93.2,355.6,118.1,325.2,118.1z"/>
<g>
	<path class="st1" d="M25.1,75.7c-3.3-2.4-5.1-5.9-5.4-10.5h14.2c0.2,2.4,1.3,3.7,3.2,3.7c0.7,0,1.3-0.2,1.8-0.5
		c0.5-0.3,0.8-0.9,0.8-1.6c0-1-0.5-1.8-1.6-2.4c-1.1-0.6-2.8-1.3-5-2.1c-2.7-1-5-1.9-6.8-2.8s-3.3-2.3-4.6-4c-1.3-1.8-1.9-4-1.9-6.8
		c0-2.8,0.7-5.1,2.1-7c1.4-1.9,3.4-3.4,5.8-4.4s5.2-1.5,8.3-1.5c5.2,0,9.3,1.2,12.4,3.6c3.1,2.4,4.7,5.8,4.8,10.1H39
		c0-1.2-0.3-2.1-0.9-2.6s-1.2-0.8-2-0.8c-0.6,0-1,0.2-1.4,0.6s-0.5,0.9-0.5,1.6c0,1,0.5,1.8,1.6,2.4s2.8,1.4,5.1,2.2
		c2.7,1,4.9,2,6.6,2.9c1.7,0.9,3.2,2.2,4.5,3.8s1.9,3.7,1.9,6.2c0,2.5-0.6,4.9-1.9,7s-3.1,3.7-5.6,4.8c-2.4,1.2-5.3,1.7-8.7,1.7
		C32.6,79.2,28.4,78,25.1,75.7z"/>
	<path class="st1" d="M71.9,46.9v5.2h13.2v10H71.9v6h15v10.6H58.6V36.3h28.3v10.6C86.9,46.9,71.9,46.9,71.9,46.9z"/>
	<path class="st1" d="M143,36.3v42.5h-13.3V57.6l-6.5,21.2h-11.4l-6.5-21.2v21.2H92V36.3h16.3l9.4,25.5l9.1-25.5
		C126.8,36.3,143,36.3,143,36.3z"/>
	<path class="st1" d="M176.3,72.4h-14.2l-2.1,6.4h-14l15.5-42.5h15.4l15.5,42.5h-14L176.3,72.4L176.3,72.4z M173,62.4l-3.8-11.8
		l-3.8,11.8H173z"/>
	<path class="st1" d="M236.1,78.8h-13.3l-14.1-21.4v21.4h-13.3V36.3h13.3L222.8,58V36.3h13.3L236.1,78.8L236.1,78.8z"/>
	<path class="st1" d="M269.4,72.4h-14.2l-2.1,6.4h-14l15.5-42.5H270l15.5,42.5h-14L269.4,72.4L269.4,72.4z M266.1,62.4l-3.8-11.8
		l-3.8,11.8H266.1z"/>
	<path class="st1" d="M296.3,47.4V34.9h20.3v43.9h-14V47.4C302.7,47.4,296.3,47.4,296.3,47.4z"/>
	<path class="st1" d="M322.8,72.2V61.1l17.9-25.5H355v25.1h4.3v11.5H355v6.6h-13.4v-6.6H322.8z M342.6,50.8l-6.5,9.9h6.5V50.8z"/>
</g>
</svg>
