<?xml version="1.0" encoding="UTF-8"?>
<svg id="Capa_1" data-name="Capa 1" xmlns="http://www.w3.org/2000/svg" xmlns:xlink="http://www.w3.org/1999/xlink" viewBox="0 0 380 117.21">
  <defs>
    <style>
      .cls-1 {
        fill: #fff;
      }

      .cls-2 {
        fill: url(#radial-gradient);
      }
    </style>
    <radialGradient id="radial-gradient" cx="190" cy="58.61" fx="190" fy="58.61" r="365.96" gradientUnits="userSpaceOnUse">
      <stop offset="0" stop-color="#f2cfe3"/>
      <stop offset="1" stop-color="#c9cfec"/>
    </radialGradient>
  </defs>
  <rect class="cls-2" y="0" width="380" height="117.21" rx="55.31" ry="55.31"/>
  <g>
    <path class="cls-1" d="m40.76,74.76c-3.3-2.38-5.09-5.87-5.37-10.47h14.16c.2,2.44,1.28,3.66,3.24,3.66.72,0,1.33-.17,1.83-.51.5-.34.75-.87.75-1.59,0-1-.54-1.81-1.62-2.43-1.08-.62-2.76-1.33-5.04-2.13-2.72-.96-4.97-1.9-6.75-2.82s-3.31-2.26-4.59-4.02c-1.28-1.76-1.9-4.02-1.86-6.78,0-2.76.71-5.11,2.13-7.05,1.42-1.94,3.36-3.41,5.82-4.41s5.23-1.5,8.31-1.5c5.2,0,9.33,1.2,12.39,3.6,3.06,2.4,4.67,5.78,4.83,10.14h-14.34c-.04-1.2-.34-2.06-.9-2.58s-1.24-.78-2.04-.78c-.56,0-1.02.19-1.38.57s-.54.91-.54,1.59c0,.96.53,1.75,1.59,2.37s2.75,1.37,5.07,2.25c2.68,1,4.89,1.96,6.63,2.88,1.74.92,3.25,2.2,4.53,3.84s1.92,3.7,1.92,6.18-.64,4.93-1.92,6.99-3.14,3.67-5.58,4.83c-2.44,1.16-5.34,1.74-8.7,1.74-5.08,0-9.27-1.19-12.57-3.57Z"/>
    <path class="cls-1" d="m87.53,46.05v5.22h13.2v10.02h-13.2v6h15v10.62h-28.32v-42.48h28.32v10.62s-15,0-15,0Z"/>
    <path class="cls-1" d="m158.63,35.43v42.48h-13.26v-21.18l-6.54,21.18h-11.4l-6.54-21.18v21.18h-13.32v-42.48h16.32l9.36,25.5,9.12-25.5s16.26,0,16.26,0Z"/>
    <path class="cls-1" d="m191.87,71.49h-14.16l-2.1,6.42h-13.98l15.54-42.48h15.36l15.48,42.48h-14.04l-2.1-6.42h0Zm-3.24-10.02l-3.84-11.82-3.84,11.82h7.68Z"/>
    <path class="cls-1" d="m251.75,77.91h-13.32l-14.1-21.36v21.36h-13.32v-42.48h13.32l14.1,21.72v-21.72h13.32v42.48Z"/>
    <path class="cls-1" d="m284.99,71.49h-14.16l-2.1,6.42h-13.98l15.54-42.48h15.36l15.48,42.48h-14.04l-2.1-6.42h0Zm-3.24-10.02l-3.84-11.82-3.84,11.82h7.68Z"/>
    <path class="cls-1" d="m325.73,56.4c3.12-3.26,4.68-6.31,4.68-9.15,0-.96-.21-1.7-.63-2.22s-.97-.78-1.65-.78c-.8,0-1.43.41-1.89,1.23-.46.82-.63,2.07-.51,3.75h-12.9c.12-3.72.93-6.78,2.43-9.18s3.45-4.16,5.85-5.28,5.04-1.68,7.92-1.68c5.12,0,8.87,1.23,11.25,3.69s3.57,5.61,3.57,9.45c0,4.04-1.29,7.83-3.87,11.37s-5.81,6.53-9.69,8.97h13.74v10.74h-31.02v-10.02c5.36-4,9.6-7.63,12.72-10.89Z"/>
  </g>
</svg>