<?xml version="1.0" encoding="UTF-8"?>
<svg id="Capa_1" data-name="Capa 1" xmlns="http://www.w3.org/2000/svg" xmlns:xlink="http://www.w3.org/1999/xlink" viewBox="0 0 380 117.21">
  <defs>
    <style>
      .cls-1 {
        fill: #fff;
      }

      .cls-2 {
        fill: url(#radial-gradient);
      }
    </style>
    <radialGradient id="radial-gradient" cx="190" cy="58.61" fx="190" fy="58.61" r="365.96" gradientUnits="userSpaceOnUse">
      <stop offset="0" stop-color="#f2cfe3"/>
      <stop offset="1" stop-color="#c9cfec"/>
    </radialGradient>
  </defs>
  <rect class="cls-2" y="0" width="380" height="117.21" rx="55.31" ry="55.31"/>
  <g>
    <path class="cls-1" d="m39.29,74.76c-3.3-2.38-5.09-5.87-5.37-10.47h14.16c.2,2.44,1.28,3.66,3.24,3.66.72,0,1.33-.17,1.83-.51.5-.34.75-.87.75-1.59,0-1-.54-1.81-1.62-2.43-1.08-.62-2.76-1.33-5.04-2.13-2.72-.96-4.97-1.9-6.75-2.82s-3.31-2.26-4.59-4.02c-1.28-1.76-1.9-4.02-1.86-6.78,0-2.76.71-5.11,2.13-7.05,1.42-1.94,3.36-3.41,5.82-4.41s5.23-1.5,8.31-1.5c5.2,0,9.33,1.2,12.39,3.6,3.06,2.4,4.67,5.78,4.83,10.14h-14.34c-.04-1.2-.34-2.06-.9-2.58s-1.24-.78-2.04-.78c-.56,0-1.02.19-1.38.57s-.54.91-.54,1.59c0,.96.53,1.75,1.59,2.37s2.75,1.37,5.07,2.25c2.68,1,4.89,1.96,6.63,2.88,1.74.92,3.25,2.2,4.53,3.84s1.92,3.7,1.92,6.18-.64,4.93-1.92,6.99-3.14,3.67-5.58,4.83c-2.44,1.16-5.34,1.74-8.7,1.74-5.08,0-9.27-1.19-12.57-3.57Z"/>
    <path class="cls-1" d="m86.06,46.05v5.22h13.2v10.02h-13.2v6h15v10.62h-28.32v-42.48h28.32v10.62s-15,0-15,0Z"/>
    <path class="cls-1" d="m157.16,35.43v42.48h-13.26v-21.18l-6.54,21.18h-11.4l-6.54-21.18v21.18h-13.32v-42.48h16.32l9.36,25.5,9.12-25.5s16.26,0,16.26,0Z"/>
    <path class="cls-1" d="m190.4,71.49h-14.16l-2.1,6.42h-13.98l15.54-42.48h15.36l15.48,42.48h-14.04l-2.1-6.42h0Zm-3.24-10.02l-3.84-11.82-3.84,11.82h7.68Z"/>
    <path class="cls-1" d="m250.28,77.91h-13.32l-14.1-21.36v21.36h-13.32v-42.48h13.32l14.1,21.72v-21.72h13.32v42.48Z"/>
    <path class="cls-1" d="m283.52,71.49h-14.16l-2.1,6.42h-13.98l15.54-42.48h15.36l15.48,42.48h-14.04l-2.1-6.42h0Zm-3.24-10.02l-3.84-11.82-3.84,11.82h7.68Z"/>
    <path class="cls-1" d="m316.73,36.87c2.66-2.52,6.43-3.78,11.31-3.78,3.16,0,5.86.54,8.1,1.62,2.24,1.08,3.93,2.54,5.07,4.38s1.71,3.92,1.71,6.24c0,2.8-.66,4.99-1.98,6.57s-2.8,2.65-4.44,3.21v.24c4.8,1.8,7.2,5.14,7.2,10.02,0,2.56-.6,4.82-1.8,6.78s-2.91,3.48-5.13,4.56-4.85,1.62-7.89,1.62c-5.2,0-9.28-1.24-12.24-3.72s-4.48-6.36-4.56-11.64h12.96c-.08,1.44.13,2.53.63,3.27s1.37,1.11,2.61,1.11c.72,0,1.32-.27,1.8-.81.48-.54.72-1.25.72-2.13,0-1.12-.37-1.97-1.11-2.55-.74-.58-1.99-.87-3.75-.87h-2.22v-10.74h2.16c2.72.16,4.08-.92,4.08-3.24,0-1-.21-1.74-.63-2.22s-.95-.72-1.59-.72c-1.48,0-2.22,1.24-2.22,3.72h-12.96c.12-4.76,1.51-8.4,4.17-10.92Z"/>
  </g>
</svg>