<?xml version="1.0" encoding="utf-8"?>
<!-- Generator: Adobe Illustrator 27.2.0, SVG Export Plug-In . SVG Version: 6.00 Build 0)  -->
<svg version="1.1" id="Capa_1" xmlns="http://www.w3.org/2000/svg" xmlns:xlink="http://www.w3.org/1999/xlink" x="0px" y="0px"
	 viewBox="0 0 380 118" style="enable-background:new 0 0 380 118;" xml:space="preserve">
<style type="text/css">
	.st0{fill:url(#SVGID_1_);}
	.st1{fill:#FFFFFF;}
</style>
<radialGradient id="SVGID_1_" cx="190.5" cy="60.5" r="365.9573" gradientTransform="matrix(1 0 0 -1 0 120)" gradientUnits="userSpaceOnUse">
	<stop  offset="0" style="stop-color:#F2CFE3"/>
	<stop  offset="1" style="stop-color:#C9CFEC"/>
</radialGradient>
<path class="st0" d="M55.8,0.9h269.4c30.5,0,55.3,24.8,55.3,55.3v6.6c0,30.5-24.8,55.3-55.3,55.3H55.8c-30.5,0-55.3-24.8-55.3-55.3
	v-6.6C0.5,25.7,25.3,0.9,55.8,0.9z"/>
<g>
	<path class="st1" d="M37.1,75.7c-3.3-2.4-5.1-5.9-5.4-10.5h14.2c0.2,2.4,1.3,3.7,3.2,3.7c0.7,0,1.3-0.2,1.8-0.5
		c0.5-0.3,0.8-0.9,0.8-1.6c0-1-0.5-1.8-1.6-2.4c-1.1-0.6-2.8-1.3-5-2.1c-2.7-1-5-1.9-6.8-2.8s-3.3-2.3-4.6-4c-1.3-1.8-1.9-4-1.9-6.8
		c0-2.8,0.7-5.1,2.1-7c1.4-1.9,3.4-3.4,5.8-4.4s5.2-1.5,8.3-1.5c5.2,0,9.3,1.2,12.4,3.6c3.1,2.4,4.7,5.8,4.8,10.1H51
		c0-1.2-0.3-2.1-0.9-2.6s-1.2-0.8-2-0.8c-0.6,0-1,0.2-1.4,0.6s-0.5,0.9-0.5,1.6c0,1,0.5,1.8,1.6,2.4s2.8,1.4,5.1,2.2
		c2.7,1,4.9,2,6.6,2.9c1.7,0.9,3.2,2.2,4.5,3.8s1.9,3.7,1.9,6.2c0,2.5-0.6,4.9-1.9,7s-3.1,3.7-5.6,4.8c-2.4,1.2-5.3,1.7-8.7,1.7
		C44.6,79.2,40.4,78,37.1,75.7z"/>
	<path class="st1" d="M83.9,46.9v5.2h13.2v10H83.9v6h15v10.6H70.6V36.3h28.3v10.6C98.9,46.9,83.9,46.9,83.9,46.9z"/>
	<path class="st1" d="M155,36.3v42.5h-13.3V57.6l-6.5,21.2h-11.4l-6.5-21.2v21.2h-13.3V36.3h16.3l9.4,25.5l9.1-25.5
		C138.7,36.3,155,36.3,155,36.3z"/>
	<path class="st1" d="M188.2,72.4h-14.2l-2.1,6.4h-14l15.5-42.5h15.4l15.5,42.5h-14L188.2,72.4L188.2,72.4z M185,62.4l-3.8-11.8
		l-3.8,11.8H185z"/>
	<path class="st1" d="M248.1,78.8h-13.3l-14.1-21.4v21.4h-13.3V36.3h13.3L234.8,58V36.3h13.3L248.1,78.8L248.1,78.8z"/>
	<path class="st1" d="M281.4,72.4h-14.2l-2.1,6.4h-14l15.5-42.5H282l15.5,42.5h-14L281.4,72.4L281.4,72.4z M278.1,62.4l-3.8-11.8
		l-3.8,11.8H278.1z"/>
	<path class="st1" d="M310.8,72.2V61.1l17.9-25.5H343v25.1h4.3v11.5H343v6.6h-13.4v-6.6H310.8z M330.7,50.8l-6.5,9.9h6.5V50.8z"/>
</g>
</svg>
