<?xml version="1.0" encoding="utf-8"?>
<!-- Generator: Adobe Illustrator 27.2.0, SVG Export Plug-In . SVG Version: 6.00 Build 0)  -->
<svg version="1.1" id="Capa_1" xmlns="http://www.w3.org/2000/svg" xmlns:xlink="http://www.w3.org/1999/xlink" x="0px" y="0px"
	 viewBox="0 0 380 118" style="enable-background:new 0 0 380 118;" xml:space="preserve">
<style type="text/css">
	.st0{fill:url(#SVGID_1_);}
	.st1{fill:#FFFFFF;}
</style>
<radialGradient id="SVGID_1_" cx="190.5" cy="59.5" r="365.9636" gradientUnits="userSpaceOnUse">
	<stop  offset="0" style="stop-color:#F2CFE3"/>
	<stop  offset="1" style="stop-color:#C9CFEC"/>
</radialGradient>
<path class="st0" d="M325.2,118.1H55.8c-30.4,0-55.3-24.9-55.3-55.3v-6.6c0-30.4,24.9-55.3,55.3-55.3h269.4
	c30.4,0,55.3,24.9,55.3,55.3v6.6C380.5,93.2,355.6,118.1,325.2,118.1z"/>
<g>
	<path class="st1" d="M38.5,75.7c-3.3-2.4-5.1-5.9-5.4-10.5h14.2c0.2,2.4,1.3,3.7,3.2,3.7c0.7,0,1.3-0.2,1.8-0.5
		c0.5-0.3,0.8-0.9,0.8-1.6c0-1-0.5-1.8-1.6-2.4c-1.1-0.6-2.8-1.3-5-2.1c-2.7-1-5-1.9-6.8-2.8s-3.3-2.3-4.6-4c-1.3-1.8-1.9-4-1.9-6.8
		c0-2.8,0.7-5.1,2.1-7c1.4-1.9,3.4-3.4,5.8-4.4s5.2-1.5,8.3-1.5c5.2,0,9.3,1.2,12.4,3.6c3.1,2.4,4.7,5.8,4.8,10.1H52.4
		c0-1.2-0.3-2.1-0.9-2.6s-1.2-0.8-2-0.8c-0.6,0-1,0.2-1.4,0.6s-0.5,0.9-0.5,1.6c0,1,0.5,1.8,1.6,2.4s2.8,1.4,5.1,2.2
		c2.7,1,4.9,2,6.6,2.9c1.7,0.9,3.2,2.2,4.5,3.8s1.9,3.7,1.9,6.2c0,2.5-0.6,4.9-1.9,7s-3.1,3.7-5.6,4.8c-2.4,1.2-5.3,1.7-8.7,1.7
		C46,79.2,41.8,78,38.5,75.7z"/>
	<path class="st1" d="M85.3,46.9v5.2h13.2v10H85.3v6h15v10.6H72V36.3h28.3v10.6C100.3,46.9,85.3,46.9,85.3,46.9z"/>
	<path class="st1" d="M156.4,36.3v42.5h-13.3V57.6l-6.5,21.2h-11.4l-6.5-21.2v21.2h-13.3V36.3h16.3l9.4,25.5l9.1-25.5
		C140.1,36.3,156.4,36.3,156.4,36.3z"/>
	<path class="st1" d="M189.6,72.4h-14.2l-2.1,6.4h-14l15.5-42.5h15.4l15.5,42.5h-14L189.6,72.4L189.6,72.4z M186.4,62.4l-3.8-11.8
		l-3.8,11.8H186.4z"/>
	<path class="st1" d="M249.5,78.8h-13.3l-14.1-21.4v21.4h-13.3V36.3h13.3L236.2,58V36.3h13.3L249.5,78.8L249.5,78.8z"/>
	<path class="st1" d="M282.8,72.4h-14.2l-2.1,6.4h-14l15.5-42.5h15.4l15.5,42.5h-14L282.8,72.4L282.8,72.4z M279.5,62.4l-3.8-11.8
		l-3.8,11.8H279.5z"/>
	<path class="st1" d="M314.3,51c-0.9-1.5-1.4-3.3-1.4-5.4s0.6-4.1,1.7-5.9c1.2-1.8,2.9-3.2,5.3-4.2c2.4-1.1,5.3-1.6,8.8-1.6
		s6.4,0.5,8.8,1.6s4.1,2.5,5.3,4.2s1.7,3.7,1.7,5.9s-0.5,3.9-1.4,5.4s-2.1,2.7-3.8,3.6c4,2.4,6.1,5.9,6.1,10.6c0,3-0.8,5.6-2.3,7.7
		c-1.5,2.1-3.6,3.7-6.1,4.8s-5.4,1.6-8.4,1.6s-5.8-0.5-8.4-1.6s-4.6-2.7-6.1-4.8s-2.3-4.7-2.3-7.7c0-4.7,2-8.3,6.1-10.6
		C316.4,53.8,315.2,52.6,314.3,51z M325.9,61.5c-0.7,0.8-1,1.8-1,3s0.3,2.2,1,2.9s1.6,1.1,2.9,1.1s2.2-0.4,2.9-1.1s1-1.7,1-2.9
		s-0.4-2.2-1-3c-0.7-0.8-1.6-1.2-2.9-1.2S326.6,60.8,325.9,61.5z M330.8,45.2c-0.5-0.7-1.2-1-2-1s-1.5,0.3-2,1
		c-0.5,0.7-0.8,1.5-0.8,2.7s0.3,2,0.8,2.6s1.2,0.9,2,0.9s1.5-0.3,2-0.9c0.5-0.6,0.8-1.5,0.8-2.6S331.3,45.9,330.8,45.2z"/>
</g>
</svg>
