<?xml version="1.0" encoding="utf-8"?>
<!-- Generator: Adobe Illustrator 27.2.0, SVG Export Plug-In . SVG Version: 6.00 Build 0)  -->
<svg version="1.1" id="Capa_1" xmlns="http://www.w3.org/2000/svg" xmlns:xlink="http://www.w3.org/1999/xlink" x="0px" y="0px"
	 viewBox="0 0 630 635.7" style="enable-background:new 0 0 630 635.7;" xml:space="preserve">
<style type="text/css">
	.st0{fill:url(#SVGID_1_);}
	.st1{fill:#FFFFFF;}
</style>
<radialGradient id="SVGID_1_" cx="315" cy="269.7244" r="419.44" gradientTransform="matrix(1 0 0 -1 0 536.4488)" gradientUnits="userSpaceOnUse">
	<stop  offset="0" style="stop-color:#F2CFE3"/>
	<stop  offset="1" style="stop-color:#C9CFEC"/>
</radialGradient>
<circle class="st0" cx="315" cy="320.7" r="315"/>
<g>
	<path class="st1" d="M315,455.6H206.5c-9.4,0-14.2-4.8-14.2-14.2c0-12.2-0.1-24.4,0-36.6c0.2-29.4,23.5-55.5,52.6-59.3
		c3.1-0.4,6.3-0.6,9.4-0.6c40.4,0,80.8,0,121.3,0c32.4,0,58.6,23.4,61.8,55.6c0.9,9.5,0.2,19.1,0.3,28.6c0,4.3,0,8.5,0,12.8
		c0,8.6-5,13.6-13.6,13.6L315,455.6L315,455.6z"/>
	<path class="st1" d="M314.9,320.9c-37.4,0-67.6-30.2-67.6-67.6s30.3-67.5,67.7-67.5c37.5,0,67.8,30.3,67.8,67.7
		C382.7,290.8,352.4,320.9,314.9,320.9L314.9,320.9L314.9,320.9z"/>
</g>
</svg>
